<svg width="20" height="20" viewBox="0 0 20 20" fill="none" xmlns="http://www.w3.org/2000/svg">
<path d="M18.5539 2.02309C18.3166 1.8257 18.0303 1.69633 17.7253 1.64876C17.4204 1.60118 17.1082 1.63718 16.8221 1.75291L1.88803 7.78237C1.56865 7.91377 1.29679 8.1392 1.10853 8.42872C0.920266 8.71824 0.824503 9.05817 0.83395 9.4034C0.843398 9.74862 0.957611 10.0828 1.16143 10.3616C1.36525 10.6404 1.64903 10.8506 1.97511 10.9643L4.99595 12.015L6.6797 17.583C6.70258 17.6574 6.73578 17.7282 6.77834 17.7933C6.7848 17.8033 6.79391 17.8108 6.80078 17.8205C6.84995 17.8891 6.90937 17.9497 6.97697 18.0003C6.99619 18.0149 7.0146 18.0287 7.03515 18.0417C7.11427 18.0942 7.20188 18.1325 7.2941 18.1551L7.30396 18.1559L7.30955 18.1583C7.365 18.1696 7.42143 18.1753 7.47801 18.1754C7.48345 18.1754 7.48829 18.1728 7.49368 18.1727C7.57906 18.1712 7.6637 18.1565 7.74459 18.1291C7.7634 18.1227 7.77953 18.112 7.79779 18.1043C7.8581 18.0793 7.91525 18.0472 7.96803 18.0088C8.0103 17.9732 8.05258 17.9376 8.09488 17.902L10.3467 15.4158L13.7052 18.0175C14.0009 18.2477 14.3649 18.3729 14.7396 18.3732C15.1322 18.3727 15.5128 18.2372 15.8174 17.9895C16.122 17.7417 16.3322 17.3968 16.4128 17.0125L19.1317 3.66535C19.1933 3.36494 19.1721 3.05344 19.0703 2.76417C18.9685 2.4749 18.79 2.21873 18.5539 2.02309V2.02309ZM7.80844 12.2803C7.6929 12.3953 7.61391 12.542 7.58139 12.7018L7.32347 13.9551L6.67009 11.7942L10.0578 10.0301L7.80844 12.2803ZM14.7266 16.7L10.7577 13.6254C10.5916 13.4971 10.3833 13.4361 10.1743 13.4545C9.96524 13.4729 9.77081 13.5694 9.62973 13.7247L8.90855 14.5207L9.16342 13.282L15.0659 7.37951C15.2068 7.23882 15.2926 7.05231 15.3079 6.85378C15.3231 6.65525 15.2668 6.45783 15.149 6.29728C15.0312 6.13672 14.8599 6.02365 14.6659 5.97854C14.472 5.93344 14.2683 5.95928 14.0918 6.05139L5.62074 10.4619L2.5171 9.32616L17.4992 3.33248L14.7266 16.7Z" fill="white"/>
</svg>
