<svg width="55" height="55" viewBox="0 0 55 55" fill="none" xmlns="http://www.w3.org/2000/svg">
<g clip-path="url(#clip0_336_287)">
<path d="M8.13811 48.7786L3.84082 0.577881H51.0623L46.7607 48.7713L27.4229 54.1324L8.13811 48.7786Z" fill="white"/>
<path d="M27.4521 50.0348L43.0782 45.7025L46.7545 4.5188H27.4521V50.0348Z" fill="white"/>
<path d="M27.4521 21.9818H35.2748L35.8151 15.9283H27.4521V10.0166H42.276L42.1341 11.6028L40.6808 27.8935H27.4521V21.9818Z" fill="black"/>
<path d="M27.4871 37.3347L27.461 37.3424L20.8774 35.5647L20.4564 30.8499H14.5229L15.3509 40.1322L27.4601 43.493L27.4871 43.4853V37.3347Z" fill="black"/>
<path d="M34.772 27.6436L34.0599 35.5602L27.4666 37.34V43.4906L39.5856 40.1319L39.6745 39.1331L40.7029 27.6436H34.772Z" fill="black"/>
<path d="M27.4722 10.0166V15.9283H13.193L13.0746 14.5998L12.8053 11.6028L12.6638 10.0166H27.4722ZM27.4521 21.9827V27.8943H20.9515L20.8331 26.5659L20.5634 23.5688L20.4224 21.9827H27.4521Z" fill="black"/>
</g>
<defs>
<clipPath id="clip0_336_287">
<rect width="54.7099" height="54.7099" fill="white" transform="translate(0.0966797)"/>
</clipPath>
</defs>
</svg>
