<svg width="54" height="54" viewBox="0 0 54 54" fill="none" xmlns="http://www.w3.org/2000/svg">
<path d="M15.7999 42.6667C19.9236 42.6667 23.2666 39.3238 23.2666 35.2001C23.2666 31.0763 19.9236 27.7334 15.7999 27.7334C11.6762 27.7334 8.33325 31.0763 8.33325 35.2001C8.33325 39.3238 11.6762 42.6667 15.7999 42.6667Z" stroke="white" stroke-width="4" stroke-miterlimit="10"/>
<path d="M41.6666 22.6667H29.6666C28.8666 22.6667 28.3333 22.1333 28.3333 21.3333V9.33333C28.3333 8.53333 28.8666 8 29.6666 8H41.6666C42.4666 8 42.9999 8.53333 42.9999 9.33333V21.3333C42.9999 22.1333 42.4666 22.6667 41.6666 22.6667Z" stroke="white" stroke-width="4" stroke-miterlimit="10"/>
<path d="M41.6666 42.6667C41.3999 42.6667 41.1333 42.6667 40.8666 42.4L28.6 30.1334C28.0666 29.6 28.0666 28.8 28.6 28.2667C29.1333 27.7334 29.9333 27.7334 30.4666 28.2667L42.7333 40.5334C43.2666 41.0667 43.2666 41.8667 42.7333 42.4C42.4666 42.6667 42.1999 42.6667 41.6666 42.6667Z" fill="white" stroke="white" stroke-width="2"/>
<path d="M29.3999 42.6667C29.6666 42.6667 29.9332 42.6667 30.1999 42.4L42.4666 30.1334C42.9999 29.6 42.9999 28.8 42.4666 28.2667C41.9332 27.7334 41.1332 27.7334 40.5999 28.2667L28.3332 40.5334C27.7999 41.0667 27.7999 41.8667 28.3332 42.4C28.8666 42.6667 29.1332 42.6667 29.3999 42.6667Z" fill="white" stroke="white" stroke-width="2"/>
<path d="M21.9332 22.6666H9.66655C8.59988 22.6666 8.06655 21.8666 8.33321 21.0666L14.4665 8.79995C14.9999 7.99995 16.3332 7.99995 16.5999 8.79995L22.7332 21.0666C23.2665 21.8666 22.7332 22.6666 21.9332 22.6666Z" stroke="white" stroke-width="4" stroke-miterlimit="10"/>
</svg>
