<svg width="56" height="56" viewBox="0 0 56 56" fill="none" xmlns="http://www.w3.org/2000/svg">
<g clip-path="url(#clip0_336_301)">
<path d="M0 27.7229C0 12.412 12.412 0 27.7229 0C43.0339 0 55.4459 12.412 55.4459 27.7229C55.4459 43.0339 43.0339 55.4459 27.7229 55.4459C12.412 55.4459 0 43.0339 0 27.7229Z" fill="white"/>
<path d="M22.1784 44.3565C25.2406 44.3565 27.723 41.8741 27.723 38.8119V33.2673H22.1784C19.1161 33.2673 16.6338 35.7498 16.6338 38.8119C16.6338 41.8741 19.1161 44.3565 22.1784 44.3565Z" fill="black"/>
<path d="M16.6338 27.7231C16.6338 24.6608 19.1161 22.1785 22.1784 22.1785H27.723V33.2676H22.1784C19.1161 33.2676 16.6338 30.7852 16.6338 27.7231Z" fill="black"/>
<path d="M16.6338 16.6337C16.6338 13.5715 19.1161 11.0891 22.1784 11.0891H27.723V22.1783H22.1784C19.1161 22.1783 16.6338 19.6958 16.6338 16.6337Z" fill="black"/>
<path d="M27.7229 11.0891H33.2675C36.3297 11.0891 38.8121 13.5715 38.8121 16.6337C38.8121 19.6958 36.3297 22.1783 33.2675 22.1783H27.7229V11.0891Z" fill="black"/>
<path d="M38.8121 27.7231C38.8121 30.7852 36.3297 33.2676 33.2675 33.2676C30.2053 33.2676 27.7229 30.7852 27.7229 27.7231C27.7229 24.6608 30.2053 22.1785 33.2675 22.1785C36.3297 22.1785 38.8121 24.6608 38.8121 27.7231Z" fill="black"/>
</g>
<defs>
<clipPath id="clip0_336_301">
<rect width="55.4459" height="55.4459" fill="white"/>
</clipPath>
</defs>
</svg>
