<svg width="30" height="30" viewBox="0 0 30 30" fill="none" xmlns="http://www.w3.org/2000/svg">
<path d="M4.16016 26.9531L1.75781 0H28.1836L25.7812 26.9531L14.9414 30" fill="#E34F26"/>
<path d="M15 27.6562L23.7305 25.2539L25.7812 2.16797H15" fill="#EF652A"/>
<path d="M15 12.1875H10.6055L10.3125 8.78906H15V5.50781H6.67969L7.55859 15.5273H15V12.1875ZM14.9414 20.8008L11.25 19.8047L11.0156 17.168H7.73438L8.14453 22.3828L14.9414 24.2578V20.8008Z" fill="#EBEBEB"/>
<path d="M14.9414 12.1875V15.5273H19.043L18.6328 19.8047L14.9414 20.8008V24.2578L21.7383 22.3828L22.6758 12.1875H14.9414ZM14.9414 5.50781V8.78906H22.9688L23.2617 5.50781H14.9414Z" fill="white"/>
</svg>
