<svg width="56" height="55" viewBox="0 0 56 55" fill="none" xmlns="http://www.w3.org/2000/svg">
<g clip-path="url(#clip0_336_296)">
<path d="M8.13497 49.1534L3.75391 0H51.9456L47.5645 49.1534L27.7963 54.7099" fill="white"/>
<path d="M27.9033 50.4356L43.8247 46.0546L47.5647 3.95361H27.9033" fill="white"/>
<path d="M27.9032 22.2259H19.889L19.3548 16.0283H27.9032V10.0444H12.7297L14.3326 28.3167H27.9032V22.2259ZM27.7963 37.9337L21.0644 36.1171L20.637 31.3086H14.6531L15.4011 40.8187L27.7963 44.2381V37.9337Z" fill="black"/>
<path d="M27.7964 22.2259V28.3167H35.2763L34.5283 36.1171L27.7964 37.9337V44.2381L40.1916 40.8187L41.9013 22.2259H27.7964ZM27.7964 10.0444V16.0283H42.4356L42.9698 10.0444H27.7964Z" fill="black"/>
</g>
<defs>
<clipPath id="clip0_336_296">
<rect width="54.7099" height="54.7099" fill="white" transform="translate(0.54834)"/>
</clipPath>
</defs>
</svg>
