<svg width="55" height="55" viewBox="0 0 55 55" fill="none" xmlns="http://www.w3.org/2000/svg">
<g clip-path="url(#clip0_336_277)">
<path d="M0.193115 0H54.903V54.7099H0.193115V0Z" fill="white"/>
<path d="M14.5783 45.7194L18.7649 43.1856C19.5728 44.6177 20.3075 45.8295 22.07 45.8295C23.7593 45.8295 24.8247 45.1687 24.8247 42.5982V25.1171H29.9659V42.6708C29.9659 47.9958 26.8445 50.4197 22.2903 50.4197C18.1774 50.4197 15.7901 48.2897 14.5781 45.719L14.5783 45.7194ZM32.7585 45.1685L36.9446 42.7448C38.0467 44.5444 39.479 45.8664 42.0128 45.8664C44.1432 45.8664 45.5016 44.8013 45.5016 43.3322C45.5016 41.5696 44.1061 40.9451 41.7557 39.9172L40.4706 39.3658C36.7613 37.7871 34.3008 35.8039 34.3008 31.6173C34.3008 27.7611 37.2387 24.823 41.8294 24.823C45.0979 24.823 47.4483 25.9616 49.1374 28.9363L45.1342 31.5072C44.2527 29.9281 43.2982 29.3039 41.8292 29.3039C40.3234 29.3039 39.3685 30.2587 39.3685 31.5072C39.3685 33.0496 40.3234 33.6742 42.5267 34.6291L43.812 35.1798C48.1824 37.053 50.6428 38.9625 50.6428 43.2589C50.6428 47.8866 47.0072 50.4204 42.1228 50.4204C37.3488 50.4204 34.2638 48.1435 32.7583 45.1687" fill="black"/>
</g>
<defs>
<clipPath id="clip0_336_277">
<rect width="54.7099" height="54.7099" fill="white" transform="translate(0.193115)"/>
</clipPath>
</defs>
</svg>
