<svg width="30" height="30" viewBox="0 0 30 30" fill="none" xmlns="http://www.w3.org/2000/svg">
<path d="M0 0H30V30H0V0Z" fill="#F7DF1E"/>
<path d="M7.88818 25.07L10.1839 23.6807C10.6269 24.4659 11.0297 25.1304 11.9962 25.1304C12.9226 25.1304 13.5067 24.7681 13.5067 23.3585V13.7728H16.3259V23.3984C16.3259 26.3183 14.6143 27.6475 12.117 27.6475C9.86173 27.6475 8.55263 26.4795 7.88806 25.0698L7.88818 25.07ZM17.8572 24.7679L20.1527 23.4389C20.757 24.4258 21.5424 25.1507 22.9318 25.1507C24.1 25.1507 24.8449 24.5666 24.8449 23.7611C24.8449 22.7945 24.0796 22.4521 22.7908 21.8884L22.0861 21.5861C20.0521 20.7204 18.7029 19.6329 18.7029 17.3372C18.7029 15.2227 20.3139 13.6116 22.8312 13.6116C24.6235 13.6116 25.9123 14.2359 26.8386 15.8671L24.6434 17.2768C24.16 16.4109 23.6367 16.0686 22.8311 16.0686C22.0054 16.0686 21.4818 16.5922 21.4818 17.2768C21.4818 18.1226 22.0054 18.4651 23.2136 18.9887L23.9184 19.2907C26.3149 20.3179 27.664 21.3649 27.664 23.7209C27.664 26.2584 25.6704 27.6478 22.9921 27.6478C20.3743 27.6478 18.6827 26.3993 17.8571 24.7681" fill="black"/>
</svg>
