<svg width="30" height="30" viewBox="0 0 30 30" fill="none" xmlns="http://www.w3.org/2000/svg">
<path d="M15 23.125C23.2825 23.125 30 19.49 30 15C30 10.5113 23.2825 6.875 15 6.875C6.7175 6.875 0 10.51 0 15C0 19.49 6.7175 23.125 15 23.125Z" fill="#878EB7"/>
<path d="M6.28619 19.5525L6.69369 17.39C8.62119 17.39 9.81494 17.535 10.9212 16.4687C12.1437 15.31 12.4637 13.2487 11.5912 12.215C11.1374 11.6737 10.4062 11.4075 9.41244 11.4075H6.09744L4.56494 19.5525H4.56619H6.28619ZM7.58369 12.6925C9.36494 12.6925 10.5749 12.495 10.2274 14.3487V14.3475C9.85744 16.3025 8.54994 16.1 6.94119 16.1L7.58369 12.6925ZM13.4474 17.38L14.3287 12.7162C15.7212 12.7162 16.2974 12.6587 16.5512 12.9387C16.8137 13.2287 16.6787 13.5475 15.9562 17.3812H17.6899C18.4399 13.4175 18.7724 12.5775 18.0787 11.9212C17.4174 11.2937 16.0499 11.4037 14.5724 11.4037L14.9799 9.24121H13.2687L11.7374 17.38H13.4474ZM19.7337 19.5525L20.1412 17.39C22.1662 17.39 23.2862 17.51 24.3687 16.4687C25.5912 15.31 25.9112 13.2487 25.0387 12.215C24.5837 11.6737 23.8524 11.4087 22.8587 11.4087H19.5449L18.0074 19.5537H19.7337V19.5525ZM21.0274 12.6925C22.8187 12.6925 24.0187 12.495 23.6712 14.3487V14.3475C23.2962 16.3325 21.9512 16.1 20.3849 16.1L21.0274 12.6925Z" fill="#23282C"/>
</svg>
