<svg width="55" height="55" viewBox="0 0 55 55" fill="none" xmlns="http://www.w3.org/2000/svg">
<g clip-path="url(#clip0_336_284)">
<path d="M27.6452 42.1721C42.7497 42.1721 55.0002 35.5431 55.0002 27.3549C55.0002 19.1689 42.7497 12.5376 27.6452 12.5376C12.5407 12.5376 0.290283 19.1666 0.290283 27.3549C0.290283 35.5431 12.5407 42.1721 27.6452 42.1721Z" fill="white"/>
<path d="M11.7542 35.6573L12.4974 31.7136C16.0125 31.7136 18.1895 31.978 20.2069 30.0335C22.4363 27.9204 23.0199 24.1614 21.4287 22.2761C20.6013 21.2891 19.2677 20.8035 17.4554 20.8035H11.41L8.61523 35.6573H8.61751H11.7542ZM14.1204 23.1469C17.3688 23.1469 19.5754 22.7868 18.9417 26.1674V26.1651C18.267 29.7304 15.8825 29.3611 12.9487 29.3611L14.1204 23.1469ZM24.8139 31.6954L26.421 23.1903C28.9605 23.1903 30.0114 23.0854 30.4741 23.596C30.9528 24.1249 30.7066 24.7062 29.389 31.6976H32.5508C33.9186 24.4691 34.5249 22.9372 33.2598 21.7404C32.0539 20.5961 29.56 20.7967 26.8655 20.7967L27.6087 16.853H24.4879L21.6955 31.6954H24.8139ZM36.2779 35.6573L37.0211 31.7136C40.714 31.7136 42.7565 31.9324 44.7306 30.0335C46.96 27.9204 47.5436 24.1614 45.9524 22.2761C45.1227 21.2891 43.7891 20.8058 41.9769 20.8058H35.9337L33.1298 35.6595H36.2779V35.6573ZM38.6373 23.1469C41.9039 23.1469 44.0923 22.7868 43.4586 26.1674V26.1651C42.7747 29.7851 40.3219 29.3611 37.4656 29.3611L38.6373 23.1469Z" fill="#23282C"/>
</g>
<defs>
<clipPath id="clip0_336_284">
<rect width="54.7099" height="54.7099" fill="white" transform="translate(0.290283)"/>
</clipPath>
</defs>
</svg>
