<svg width="56" height="55" viewBox="0 0 56 55" fill="none" xmlns="http://www.w3.org/2000/svg">
<path d="M28.0967 32.2276C30.7878 32.2276 32.9693 30.0461 32.9693 27.355C32.9693 24.664 30.7878 22.4824 28.0967 22.4824C25.4057 22.4824 23.2241 24.664 23.2241 27.355C23.2241 30.0461 25.4057 32.2276 28.0967 32.2276Z" fill="white"/>
<path d="M46.604 19.3195C45.6636 18.9775 44.6806 18.6356 43.6548 18.3364C43.9112 17.3106 44.1249 16.2848 44.2959 15.3017C45.1935 9.65976 44.2104 5.68475 41.4749 4.14603C40.6628 3.67587 39.7652 3.46216 38.7394 3.46216C35.7475 3.46216 31.9434 5.68475 28.0966 9.40331C24.2498 5.68475 20.4458 3.46216 17.4539 3.46216C16.428 3.46216 15.5305 3.67587 14.7184 4.14603C11.9829 5.72749 10.9998 9.7025 11.8974 15.3017C12.0684 16.2848 12.2821 17.3106 12.5385 18.3364C11.5127 18.6356 10.5296 18.9348 9.58931 19.3195C4.24655 21.3711 1.34009 24.1921 1.34009 27.355C1.34009 30.5179 4.28929 33.3389 9.58931 35.3905C10.5296 35.7324 11.5127 36.0744 12.5385 36.3736C12.2821 37.3994 12.0684 38.4252 11.8974 39.4083C10.9998 45.0502 11.9829 49.0252 14.7184 50.5639C15.5305 51.0341 16.428 51.2478 17.4539 51.2478C20.4885 51.2478 24.2926 49.0252 28.0966 45.3067C31.9434 49.0252 35.7475 51.2478 38.7394 51.2478C39.7652 51.2478 40.6628 51.0341 41.4749 50.5639C44.2104 48.9825 45.1935 45.0075 44.2959 39.4083C44.1249 38.4252 43.9112 37.3994 43.6548 36.3736C44.6806 36.0744 45.6636 35.7752 46.604 35.3905C51.9467 33.3389 54.8532 30.5179 54.8532 27.355C54.8532 24.1921 51.9467 21.3711 46.604 19.3195ZM40.2781 6.28314C42.0306 7.30895 42.6289 10.4719 41.9023 14.9598C41.7741 15.8574 41.5604 16.7977 41.3039 17.7808C39.0813 17.2679 36.7305 16.9259 34.2515 16.7122C32.7983 14.6606 31.3023 12.8227 29.8063 11.1557C32.9692 8.03556 36.1749 5.89846 38.7822 5.89846C39.3378 5.89846 39.8507 6.02668 40.2781 6.28314ZM35.491 31.6292C34.7217 32.9969 33.8241 34.3647 32.8837 35.7324C31.3023 35.8607 29.7208 35.9034 28.0966 35.9034C26.4297 35.9034 24.8482 35.8607 23.3095 35.7324C22.3692 34.3647 21.5144 32.9969 20.745 31.6292C19.9329 30.2187 19.1635 28.7655 18.4797 27.355C19.1635 25.9445 19.9329 24.4913 20.745 23.0808C21.5144 21.713 22.4119 20.3453 23.3523 18.9775C24.9337 18.8493 26.5152 18.8066 28.1394 18.8066C29.8063 18.8066 31.3878 18.8493 32.9265 18.9775C33.8668 20.3453 34.7217 21.713 35.491 23.0808C36.3031 24.4913 37.0725 25.9445 37.7563 27.355C37.0297 28.7655 36.3031 30.176 35.491 31.6292ZM39.0386 30.2187C39.6797 31.7147 40.1926 33.1679 40.6628 34.6211C39.2096 34.9631 37.6709 35.2195 36.0467 35.4332C36.5596 34.6211 37.1152 33.7663 37.5854 32.8687C38.0983 31.9711 38.5684 31.0735 39.0386 30.2187ZM28.0966 41.8018C27.0708 40.6905 26.0878 39.4937 25.1474 38.2542C26.1305 38.297 27.1136 38.3397 28.0966 38.3397C29.0797 38.3397 30.0628 38.297 31.0458 38.2542C30.1055 39.4937 29.1224 40.6905 28.0966 41.8018ZM20.1466 35.3905C18.5224 35.1768 16.9837 34.9203 15.5305 34.5784C16.0006 33.1679 16.5135 31.6719 17.1547 30.176C17.6248 31.0308 18.095 31.9284 18.6079 32.7832C19.1208 33.7236 19.6337 34.5357 20.1466 35.3905ZM17.1547 24.4913C16.5135 22.9953 16.0006 21.5421 15.5305 20.0888C16.9837 19.7469 18.5224 19.4904 20.1466 19.2767C19.6337 20.0888 19.0781 20.9437 18.6079 21.8413C18.095 22.7388 17.6248 23.6364 17.1547 24.4913ZM28.0966 12.9082C29.1224 14.0195 30.1055 15.2162 31.0458 16.4558C30.0628 16.413 29.0797 16.3703 28.0966 16.3703C27.1136 16.3703 26.1305 16.413 25.1474 16.4558C26.0878 15.2162 27.0708 14.0195 28.0966 12.9082ZM37.5854 21.884L36.0467 19.3195C37.6709 19.5332 39.2096 19.7896 40.6628 20.1316C40.1926 21.5421 39.6797 23.038 39.0386 24.534C38.5684 23.6364 38.0983 22.7388 37.5854 21.884ZM14.2909 14.9598C13.5643 10.4719 14.1627 7.30895 15.9151 6.28314C16.3426 6.02668 16.8555 5.89846 17.4111 5.89846C19.9756 5.89846 23.1813 7.99282 26.3869 11.1557C24.891 12.7799 23.395 14.6606 21.9418 16.7122C19.4627 16.9259 17.1119 17.3106 14.8893 17.7808C14.6329 16.7977 14.4619 15.8574 14.2909 14.9598ZM3.73364 27.355C3.73364 25.3461 6.16994 23.209 10.4442 21.6275C11.299 21.2856 12.2393 20.9864 13.1796 20.73C13.8635 22.8671 14.7184 25.1324 15.7442 27.3977C14.7184 29.6631 13.8208 31.8856 13.1796 34.0228C7.28124 32.3131 3.73364 29.7485 3.73364 27.355ZM15.9151 48.4268C14.1627 47.401 13.5643 44.2381 14.2909 39.7502C14.4192 38.8526 14.6329 37.9123 14.8893 36.9292C17.1119 37.4421 19.4627 37.7841 21.9418 37.9978C23.395 40.0494 24.891 41.8873 26.3869 43.5542C23.224 46.6744 20.0184 48.8115 17.4111 48.8115C16.8555 48.8115 16.3426 48.6833 15.9151 48.4268ZM41.9023 39.7502C42.6289 44.2381 42.0306 47.401 40.2781 48.4268C39.8507 48.6833 39.3378 48.8115 38.7822 48.8115C36.2176 48.8115 33.012 46.7172 29.8063 43.5542C31.3023 41.93 32.7983 40.0494 34.2515 37.9978C36.7305 37.7841 39.0813 37.3994 41.3039 36.9292C41.5604 37.9123 41.7314 38.8526 41.9023 39.7502ZM45.7491 33.0824C44.8943 33.4244 43.9539 33.7236 43.0136 33.98C42.3297 31.8429 41.4749 29.5776 40.4491 27.3122C41.4749 25.0469 42.3725 22.8243 43.0136 20.6872C48.912 22.3969 52.4596 24.9614 52.4596 27.355C52.4596 29.3639 49.9806 31.501 45.7491 33.0824Z" fill="white"/>
</svg>
