<svg width="55" height="56" viewBox="0 0 55 56" fill="none" xmlns="http://www.w3.org/2000/svg">
<g clip-path="url(#clip0_336_294)">
<path fill-rule="evenodd" clip-rule="evenodd" d="M0.520996 24.3816C0.520996 24.6821 0.609472 24.8804 0.659053 25.0732C0.982183 26.3268 1.67674 27.4026 2.50081 28.384C3.67451 29.7825 5.11192 30.9083 6.58439 31.967C7.86152 32.8851 9.16473 33.7827 10.447 34.694C10.6671 34.8504 10.8753 35.0304 11.1142 35.2223C10.9086 35.3334 10.7376 35.4313 10.5598 35.5215C8.86767 36.3797 7.23962 37.3419 5.73895 38.5074C4.83453 39.2101 3.96002 39.9568 3.3424 40.9326C2.34865 42.5021 1.99688 44.1742 2.7376 45.9595C2.95388 46.481 3.28384 46.9315 3.74931 47.2644C3.90019 47.3721 4.06944 47.479 4.24597 47.5209C4.69818 47.6273 5.15894 47.697 5.61671 47.7812L6.91307 47.7803C8.34664 47.6525 9.65156 47.1614 10.8308 46.3476C12.6739 45.0756 13.9155 43.3702 14.4494 41.1814C14.8375 39.5905 14.8533 37.9979 14.3959 36.4143C14.3536 36.2673 14.3002 36.1233 14.2446 35.9809C14.1891 35.8386 14.1237 35.7001 14.0467 35.5227L16.9857 33.8327L17.0297 33.8703C16.9763 34.0452 16.9194 34.2195 16.8711 34.3961C16.5219 35.6715 16.2898 36.9691 16.3732 38.2929C16.4621 39.7034 16.8557 41.0237 17.6815 42.2021C18.3491 43.1552 19.94 43.1907 20.6495 42.2341C20.9013 41.8943 21.1453 41.5391 21.3287 41.16C21.8078 40.1705 22.2515 39.1635 22.7093 38.1634L22.7892 37.9804C22.7563 38.454 22.7178 38.8699 22.7003 39.2862C22.6729 39.9363 22.711 40.5826 22.9332 41.201C23.1234 41.7302 23.447 42.1255 24.0531 42.1952C24.4677 42.2427 24.7981 42.0529 25.1028 41.8122C25.579 41.4365 25.9658 40.9724 26.253 40.4449C27.0655 38.9528 27.8999 37.4697 28.6363 35.9399C29.433 34.2854 30.1297 32.5825 30.8696 30.8998L30.9918 30.6014C31.1666 31.2883 31.2885 31.9611 31.5128 32.5979C31.7736 33.3369 32.0963 34.0584 32.4476 34.7598C32.6139 35.0911 32.5947 35.306 32.3643 35.5839C31.4 36.7465 30.4524 37.9231 29.504 39.0986C29.2941 39.358 29.0851 39.6221 28.9103 39.9055C28.8047 40.0778 28.7346 40.2876 28.7051 40.4885C28.6483 40.8723 28.8855 41.2425 29.2962 41.331C29.6715 41.4118 30.0712 41.4417 30.4537 41.4135C31.7774 41.316 32.9793 40.8514 34.0419 40.0641C35.4186 39.0443 35.8606 37.6526 35.5272 36.0032C35.437 35.5557 35.2776 35.1205 35.1224 34.6893C35.0527 34.4948 35.048 34.3585 35.175 34.1772C36.2756 32.6056 37.2159 30.9382 38.0904 29.2324C38.125 29.1653 38.1605 29.0982 38.2212 29.0264C38.5046 30.501 38.9312 31.9222 39.6954 33.2117C39.3056 33.5874 38.9196 33.928 38.5704 34.3033C37.8015 35.1299 37.1347 36.0275 36.7868 37.1222C36.6372 37.594 36.5222 38.0736 36.5889 38.5775C36.6923 39.3601 37.3335 39.8688 38.1033 39.6905C39.7505 39.3093 41.1726 38.5331 42.2116 37.1581C42.9109 36.2323 42.9746 35.1996 42.6818 34.1178C42.6014 33.8237 42.5061 33.5344 42.4035 33.1972C42.81 33.0711 43.2062 32.9198 43.6161 32.8262C45.7443 32.3406 47.8493 32.4252 49.9001 33.1937C51.0973 33.6425 52.0645 34.3935 52.6381 35.5749C53.3387 37.0191 52.9514 38.3895 51.5901 39.3024C51.4631 39.3875 51.3178 39.4546 51.2127 39.561C51.1481 39.6264 51.1092 39.7572 51.1251 39.8474C51.134 39.9 51.2729 39.9658 51.3529 39.9649C51.8004 39.9615 52.1633 39.7269 52.5116 39.4858C53.3844 38.8819 54.0213 38.0693 54.1585 36.9995L54.1854 36.9191L54.1525 36.2224C54.1392 36.1823 54.1623 36.1425 54.1593 36.1122C53.9738 34.5542 53.1416 33.3459 51.9312 32.3987C50.5292 31.3024 48.8738 30.851 47.1231 30.7797C45.6964 30.7215 44.294 30.9335 42.9494 31.4221C42.566 31.561 42.186 31.7255 41.8004 31.8807C41.7487 31.7871 41.6932 31.6973 41.6474 31.6046C41.2516 30.7942 40.7721 30.0197 40.6661 29.0905C40.5908 28.4306 40.4985 27.7715 40.6554 27.1188C40.8063 26.4909 41.0029 25.8737 41.188 25.2544C41.2833 24.9355 41.2162 24.7569 40.9118 24.6133C40.8058 24.5633 40.6904 24.5197 40.5759 24.503C39.8279 24.3944 39.0902 24.4564 38.3657 24.6671C38.1092 24.7419 37.9229 24.8855 37.866 25.1693C37.8336 25.3322 37.7673 25.4882 37.7211 25.6489C37.5318 26.317 37.3976 26.9978 37.0915 27.6343C36.3248 29.2307 35.4494 30.7668 34.5535 32.2919C34.4565 32.4564 34.3543 32.618 34.2321 32.8176C33.9175 32.1594 33.582 31.5687 33.4803 30.8763C33.3653 30.0932 33.2747 29.3115 33.4696 28.5344C33.6145 27.9548 33.8038 27.3859 33.9782 26.814C34.0607 26.5422 34.0227 26.3995 33.7765 26.2563C33.6521 26.184 33.5115 26.1199 33.3713 26.099C32.5955 25.984 31.8313 26.0443 31.0829 26.2862C30.8508 26.3614 30.729 26.5114 30.658 26.7508C30.4494 27.4569 30.2716 28.1801 29.9788 28.8516C28.7932 31.57 27.5733 34.2743 26.3547 36.9781C26.1004 37.5427 25.8025 38.0877 25.5157 38.6374C25.443 38.7767 25.337 38.8994 25.2464 39.0302C25.1738 38.9443 25.1456 38.8853 25.146 38.8263C25.1481 38.4788 25.1067 38.121 25.1729 37.7851C25.3734 36.7687 25.6042 35.7578 25.8474 34.7508C26.0483 33.9191 26.2821 33.095 26.5048 32.2688C26.5796 31.9923 26.5808 31.7337 26.3821 31.5011C26.0483 31.1118 25.3507 31.0263 24.937 31.3263L24.754 31.4298L24.7895 31.1348C24.8767 30.5027 24.8942 29.8727 24.7207 29.2499C24.5044 28.4737 23.9505 28.0271 23.1452 28.0519C22.77 28.0634 22.3759 28.1275 22.0284 28.2643C20.567 28.837 19.4433 29.8513 18.4868 31.0716C18.4 31.1823 18.2855 31.2832 18.1632 31.3511C16.9267 32.0367 15.6863 32.7137 14.4464 33.3933L13.0662 34.1494C12.6961 33.7964 12.3597 33.4301 11.978 33.1194C10.8124 32.1688 9.62805 31.2417 8.45435 30.3018C7.41401 29.4688 6.40615 28.6011 5.63509 27.4979C5.06149 26.6773 4.69177 25.7793 4.65629 24.7646C4.61141 23.4716 4.97814 22.2902 5.63637 21.1905C6.47839 19.7834 7.62687 18.6542 8.88947 17.6313C10.2252 16.55 11.6698 15.6319 13.1671 14.7937C15.2619 13.6213 17.4165 12.5835 19.7267 11.8983C22.0955 11.1957 24.4989 10.7935 26.9779 11.0739C27.9524 11.1841 28.8987 11.4072 29.7677 11.8838C30.4332 12.2484 30.979 12.7258 31.2329 13.4721C31.4834 14.2064 31.4757 14.9506 31.3021 15.6964C30.9495 17.2069 30.1225 18.452 29.0817 19.5646C27.3746 21.3884 25.2922 22.63 22.9478 23.4502C21.595 23.9234 20.2033 24.2205 18.774 24.3406C17.6076 24.4384 16.4655 24.335 15.361 23.9294C14.6297 23.6605 13.9929 23.2494 13.4808 22.6527C13.3894 22.5458 13.2722 22.43 13.1017 22.53C12.9346 22.6283 12.9051 22.7873 12.9611 22.9485C13.0547 23.216 13.141 23.4947 13.2868 23.7341C13.6531 24.3346 14.1873 24.7701 14.7755 25.1437C15.9052 25.8622 17.1678 26.1037 18.4769 26.1597C20.4636 26.2456 22.4019 25.9489 24.3129 25.416C27.0412 24.6551 29.4134 23.3113 31.3158 21.1913C32.8998 19.4261 34.0312 17.4339 34.2736 15.0283C34.392 13.8542 34.2659 12.704 33.7162 11.6329C33.12 10.4725 32.1719 9.60951 31.0384 9.01496C29.3877 8.14944 27.6062 7.64551 25.7675 7.64551H23.9253C21.6984 7.64551 19.5455 8.28365 17.4528 9.04488C15.8688 9.62147 14.3156 10.3019 12.8076 11.055C9.52376 12.6959 6.46556 14.6744 3.95361 17.395C2.70212 18.7503 1.64255 20.2459 1.03305 22.0068C0.854812 22.5223 0.685553 23.075 0.558182 23.608L0.520996 24.3816ZM12.4572 39.0007C12.3148 40.9065 11.451 42.4517 10.0392 43.7032C9.24508 44.4067 8.33425 44.9076 7.27339 45.0837C6.88871 45.1474 6.49506 45.1628 6.12192 45.0034C5.58978 44.776 5.47053 44.3037 5.46027 43.8006C5.44446 42.9988 5.72527 42.2739 6.11038 41.584C6.61303 40.6847 7.3499 39.9991 8.13678 39.3589C9.3763 38.3497 10.721 37.4957 12.0981 36.6896L12.202 36.6469C12.4148 37.4333 12.5161 38.2099 12.4572 39.0007ZM23.2102 30.7177C23.1098 31.3263 22.9841 31.9354 22.8063 32.5252C22.1917 34.567 21.4022 36.5456 20.5487 38.4976C20.3909 38.8588 20.1614 39.1883 19.9618 39.5307C19.931 39.5837 19.8853 39.6294 19.8408 39.6734C19.5938 39.9175 19.3596 39.9047 19.2348 39.5854C19.0894 39.2144 19.0001 38.8173 18.9232 38.4245C18.8715 38.1608 18.8839 37.8838 18.8676 37.6137C18.8843 35.6929 19.4703 33.9473 20.4645 32.3222C20.8743 31.652 21.3206 31.0135 22.0023 30.5895C22.2117 30.4591 22.4468 30.3544 22.684 30.2877C23.0474 30.1855 23.2705 30.3535 23.2102 30.7177ZM30.5465 40.0645L33.1832 36.9858C33.2931 38.1292 31.3496 40.4116 30.5465 40.0645ZM38.9679 37.9928C38.7816 38.0997 38.5785 38.1766 38.3875 38.2753C38.2127 38.366 38.155 38.2745 38.1498 38.124C38.1464 38.0219 38.1614 37.915 38.1896 37.8159C38.5456 36.5601 39.2009 35.4881 40.1758 34.6162L40.2442 34.5811C40.708 35.8784 40.172 37.303 38.9679 37.9928Z" fill="white"/>
</g>
<defs>
<clipPath id="clip0_336_294">
<rect width="54.7099" height="54.7099" fill="white" transform="translate(0 0.379395)"/>
</clipPath>
</defs>
</svg>
