<svg width="30" height="30" viewBox="0 0 30 30" fill="none" xmlns="http://www.w3.org/2000/svg">
<path fill-rule="evenodd" clip-rule="evenodd" d="M0.285645 13.1616C0.285645 13.3263 0.33416 13.4351 0.361348 13.5408C0.538535 14.2282 0.919394 14.8181 1.37127 15.3562C2.01486 16.1231 2.80307 16.7405 3.61049 17.321C4.3108 17.8245 5.02541 18.3166 5.72853 18.8163C5.84924 18.9021 5.96338 19.0008 6.09439 19.106C5.98166 19.167 5.88791 19.2206 5.79041 19.2701C4.86252 19.7407 3.96978 20.2683 3.14689 20.9074C2.65096 21.2927 2.17143 21.7022 1.83275 22.2373C1.28783 23.0979 1.09494 24.0148 1.50111 24.9937C1.61971 25.2797 1.80064 25.5267 2.05588 25.7093C2.13861 25.7684 2.23143 25.827 2.32822 25.8499C2.57619 25.9083 2.82885 25.9465 3.07986 25.9927L3.79072 25.9922C4.57682 25.9221 5.29236 25.6528 5.939 25.2066C6.94963 24.5091 7.63049 23.5739 7.92322 22.3737C8.13603 21.5013 8.14471 20.628 7.89392 19.7597C7.87072 19.6791 7.84142 19.6001 7.81096 19.522C7.78049 19.444 7.74463 19.368 7.70244 19.2708L9.314 18.3441L9.33814 18.3647C9.30885 18.4605 9.27767 18.5562 9.25119 18.653C9.05971 19.3523 8.93244 20.0639 8.97814 20.7898C9.02689 21.5632 9.24275 22.2872 9.69557 22.9334C10.0617 23.456 10.934 23.4755 11.3231 22.9509C11.4611 22.7646 11.5949 22.5698 11.6955 22.362C11.9582 21.8194 12.2015 21.2672 12.4525 20.7188L12.4963 20.6184C12.4783 20.8781 12.4572 21.1062 12.4476 21.3345C12.4326 21.6909 12.4535 22.0453 12.5753 22.3845C12.6796 22.6746 12.857 22.8914 13.1894 22.9296C13.4167 22.9556 13.5979 22.8516 13.765 22.7196C14.0261 22.5136 14.2382 22.2591 14.3957 21.9698C14.8413 21.1516 15.2988 20.3384 15.7026 19.4995C16.1395 18.5923 16.5215 17.6585 16.9272 16.7358L16.9942 16.5722C17.0901 16.9488 17.1569 17.3177 17.2799 17.667C17.4229 18.0722 17.5999 18.4678 17.7925 18.8524C17.8837 19.0341 17.8731 19.152 17.7468 19.3043C17.2181 19.9418 16.6985 20.587 16.1784 21.2316C16.0633 21.3738 15.9487 21.5187 15.8528 21.6741C15.7949 21.7685 15.7565 21.8836 15.7403 21.9937C15.7092 22.2042 15.8392 22.4072 16.0645 22.4557C16.2703 22.5 16.4894 22.5164 16.6992 22.5009C17.425 22.4475 18.0841 22.1927 18.6667 21.761C19.4217 21.2018 19.664 20.4387 19.4812 19.5342C19.4317 19.2888 19.3443 19.0502 19.2592 18.8138C19.221 18.7071 19.2185 18.6323 19.2881 18.533C19.8916 17.6712 20.4072 16.7569 20.8867 15.8215C20.9057 15.7847 20.9252 15.7479 20.9585 15.7085C21.1138 16.5171 21.3478 17.2964 21.7668 18.0035C21.5531 18.2095 21.3414 18.3963 21.1499 18.6021C20.7283 19.0554 20.3627 19.5476 20.1719 20.1478C20.0899 20.4066 20.0268 20.6695 20.0634 20.9459C20.1201 21.375 20.4717 21.6539 20.8938 21.5562C21.797 21.3471 22.5768 20.9215 23.1466 20.1675C23.53 19.6598 23.5649 19.0936 23.4044 18.5004C23.3603 18.3391 23.3081 18.1805 23.2518 17.9955C23.4747 17.9264 23.692 17.8434 23.9167 17.7921C25.0837 17.5259 26.238 17.5723 27.3625 17.9937C28.019 18.2398 28.5494 18.6516 28.8639 19.2994C29.2481 20.0913 29.0357 20.8427 28.2892 21.3434C28.2196 21.39 28.1399 21.4268 28.0823 21.4852C28.0469 21.521 28.0256 21.5927 28.0342 21.6422C28.0392 21.671 28.1153 21.7071 28.1592 21.7066C28.4045 21.7048 28.6035 21.5761 28.7945 21.4439C29.2731 21.1127 29.6224 20.6672 29.6976 20.0805L29.7124 20.0365L29.6943 19.6545C29.687 19.6324 29.6997 19.6106 29.6981 19.594C29.5963 18.7397 29.14 18.0771 28.4763 17.5577C27.7075 16.9566 26.7998 16.7091 25.8398 16.6699C25.0574 16.638 24.2885 16.7543 23.5511 17.0222C23.3409 17.0984 23.1325 17.1886 22.9211 17.2737C22.8928 17.2223 22.8623 17.1731 22.8372 17.1223C22.6202 16.6779 22.3572 16.2532 22.2991 15.7437C22.2578 15.3818 22.2072 15.0204 22.2932 14.6625C22.376 14.3182 22.4838 13.9798 22.5853 13.6402C22.6375 13.4653 22.6007 13.3673 22.4338 13.2886C22.3757 13.2612 22.3124 13.2373 22.2496 13.2281C21.8395 13.1686 21.4349 13.2026 21.0377 13.3181C20.897 13.3591 20.7949 13.4379 20.7637 13.5935C20.7459 13.6828 20.7095 13.7684 20.6842 13.8565C20.5804 14.2228 20.5068 14.5962 20.339 14.9452C19.9185 15.8205 19.4385 16.6629 18.9473 17.4991C18.8941 17.5894 18.8381 17.678 18.771 17.7874C18.5985 17.4265 18.4145 17.1026 18.3588 16.7229C18.2957 16.2935 18.246 15.8648 18.3529 15.4388C18.4324 15.1209 18.5362 14.809 18.6318 14.4954C18.677 14.3463 18.6562 14.268 18.5212 14.1895C18.453 14.1499 18.3759 14.1148 18.299 14.1033C17.8736 14.0402 17.4545 14.0733 17.0442 14.2059C16.9169 14.2472 16.8501 14.3295 16.8112 14.4607C16.6968 14.8479 16.5993 15.2445 16.4388 15.6127C15.7886 17.1033 15.1197 18.5862 14.4515 20.0688C14.312 20.3784 14.1487 20.6773 13.9914 20.9787C13.9516 21.0551 13.8935 21.1223 13.8438 21.1941C13.8039 21.147 13.7885 21.1146 13.7887 21.0823C13.7899 20.8917 13.7671 20.6955 13.8035 20.5113C13.9134 19.954 14.0399 19.3997 14.1733 18.8475C14.2835 18.3914 14.4117 17.9395 14.5338 17.4865C14.5748 17.3348 14.5755 17.193 14.4665 17.0655C14.2835 16.852 13.901 16.8052 13.6741 16.9697L13.5738 17.0264L13.5932 16.8647C13.641 16.518 13.6506 16.1726 13.5555 15.8311C13.4369 15.4055 13.1331 15.1605 12.6916 15.1741C12.4858 15.1805 12.2697 15.2156 12.0792 15.2906C11.2778 15.6047 10.6617 16.1609 10.1371 16.83C10.0895 16.8907 10.0267 16.946 9.95971 16.9833C9.28166 17.3592 8.6015 17.7305 7.92158 18.1031L7.16478 18.5177C6.96182 18.3241 6.77736 18.1233 6.56807 17.9529C5.92893 17.4316 5.27947 16.9233 4.63588 16.4079C4.06541 15.9511 3.51275 15.4753 3.08994 14.8704C2.77541 14.4204 2.57268 13.928 2.55322 13.3716C2.52861 12.6626 2.72971 12.0148 3.09064 11.4117C3.55236 10.6402 4.18213 10.0209 4.87447 9.46008C5.60689 8.86711 6.39908 8.36367 7.2201 7.90406C8.36877 7.26117 9.55025 6.69211 10.817 6.31641C12.116 5.93109 13.4338 5.71055 14.7932 5.8643C15.3276 5.92477 15.8465 6.04711 16.323 6.30844C16.6879 6.50836 16.9872 6.77016 17.1264 7.17937C17.2638 7.58203 17.2595 7.99008 17.1644 8.39906C16.971 9.22734 16.5175 9.91008 15.9468 10.5202C15.0107 11.5202 13.8688 12.2011 12.5833 12.6509C11.8415 12.9103 11.0784 13.0732 10.2946 13.1391C9.65502 13.1927 9.02877 13.136 8.42314 12.9136C8.02213 12.7662 7.67291 12.5407 7.39213 12.2135C7.34197 12.1549 7.27775 12.0914 7.18424 12.1463C7.0926 12.2002 7.07643 12.2873 7.10713 12.3757C7.15846 12.5224 7.2058 12.6752 7.28572 12.8065C7.48658 13.1358 7.77955 13.3746 8.10205 13.5795C8.7215 13.9734 9.41385 14.1059 10.1317 14.1366C11.2211 14.1837 12.284 14.021 13.3319 13.7288C14.8279 13.3116 16.1287 12.5747 17.1719 11.4122C18.0405 10.4442 18.6609 9.3518 18.7938 8.03273C18.8587 7.38891 18.7895 6.7582 18.4881 6.17086C18.1612 5.53453 17.6413 5.06133 17.0198 4.73531C16.1146 4.2607 15.1378 3.98438 14.1295 3.98438H13.1193C11.8982 3.98438 10.7177 4.3343 9.57017 4.75172C8.70158 5.06789 7.84986 5.44102 7.02299 5.85398C5.22228 6.75375 3.54533 7.83867 2.16791 9.33047C1.48166 10.0737 0.900645 10.8937 0.566426 11.8594C0.468691 12.142 0.375879 12.4451 0.306035 12.7373L0.285645 13.1616ZM6.8308 21.1779C6.75275 22.223 6.27908 23.0702 5.50494 23.7565C5.06947 24.1423 4.57002 24.417 3.9883 24.5135C3.77736 24.5484 3.5615 24.5569 3.35689 24.4695C3.0651 24.3448 2.99971 24.0858 2.99408 23.8099C2.98541 23.3702 3.13939 22.9727 3.35057 22.5945C3.62619 22.1013 4.03025 21.7254 4.46174 21.3743C5.14143 20.8209 5.87877 20.3527 6.63393 19.9106L6.69088 19.8872C6.8076 20.3184 6.86314 20.7443 6.8308 21.1779ZM12.7272 16.6359C12.6721 16.9697 12.6032 17.3037 12.5057 17.6271C12.1687 18.7467 11.7358 19.8316 11.2678 20.902C11.1813 21.1001 11.0554 21.2808 10.946 21.4685C10.9291 21.4976 10.904 21.5227 10.8796 21.5468C10.7442 21.6806 10.6157 21.6736 10.5473 21.4985C10.4676 21.2951 10.4186 21.0773 10.3764 20.862C10.3481 20.7173 10.3549 20.5655 10.346 20.4173C10.3551 19.3641 10.6764 18.4069 11.2216 17.5158C11.4463 17.1483 11.691 16.7981 12.0649 16.5656C12.1797 16.4941 12.3086 16.4367 12.4387 16.4002C12.6379 16.3441 12.7603 16.4363 12.7272 16.6359ZM16.75 21.7612L18.1959 20.073C18.2561 20.7 17.1904 21.9516 16.75 21.7612ZM21.3679 20.6252C21.2657 20.6838 21.1544 20.726 21.0496 20.7802C20.9538 20.8298 20.9221 20.7797 20.9193 20.6972C20.9174 20.6412 20.9256 20.5826 20.9411 20.5282C21.1363 19.8396 21.4956 19.2518 22.0303 18.7737L22.0678 18.7545C22.322 19.4658 22.0281 20.247 21.3679 20.6252Z" fill="#CB6699"/>
</svg>
