<svg width="41" height="235" viewBox="0 0 41 235" fill="none" xmlns="http://www.w3.org/2000/svg">
<path d="M26.5467 150.924H13.5327V148.494H19.2207L19.2207 142.383H13.5327V139.953H26.5467V142.383H20.9487L20.9487 148.494H26.5467V150.924ZM20.0397 166.233C19.0857 166.233 18.2007 166.074 17.3847 165.756C16.5747 165.444 15.8727 165 15.2787 164.424C14.6847 163.848 14.2197 163.155 13.8837 162.345C13.5537 161.535 13.3887 160.635 13.3887 159.645C13.3887 158.661 13.5537 157.764 13.8837 156.954C14.2197 156.144 14.6847 155.448 15.2787 154.866C15.8727 154.29 16.5747 153.843 17.3847 153.525C18.2007 153.207 19.0857 153.048 20.0397 153.048C20.9937 153.048 21.8757 153.207 22.6857 153.525C23.5017 153.843 24.2067 154.29 24.8007 154.866C25.3947 155.448 25.8567 156.144 26.1867 156.954C26.5227 157.764 26.6907 158.661 26.6907 159.645C26.6907 160.305 26.6127 160.926 26.4567 161.508C26.3067 162.09 26.0907 162.624 25.8087 163.11C25.5327 163.596 25.1937 164.031 24.7917 164.415C24.3957 164.805 23.9517 165.135 23.4597 165.405C22.9677 165.675 22.4337 165.879 21.8577 166.017C21.2817 166.161 20.6757 166.233 20.0397 166.233ZM20.0397 163.758C20.7537 163.758 21.3927 163.662 21.9567 163.47C22.5267 163.278 23.0097 163.005 23.4057 162.651C23.8017 162.297 24.1047 161.865 24.3147 161.355C24.5247 160.851 24.6297 160.281 24.6297 159.645C24.6297 159.009 24.5247 158.436 24.3147 157.926C24.1047 157.422 23.8017 156.99 23.4057 156.63C23.0097 156.276 22.5267 156.003 21.9567 155.811C21.3927 155.619 20.7537 155.523 20.0397 155.523C19.3257 155.523 18.6837 155.619 18.1137 155.811C17.5497 156.003 17.0697 156.276 16.6737 156.63C16.2837 156.99 15.9837 157.422 15.7737 157.926C15.5637 158.436 15.4587 159.009 15.4587 159.645C15.4587 160.281 15.5637 160.851 15.7737 161.355C15.9837 161.865 16.2837 162.297 16.6737 162.651C17.0697 163.005 17.5497 163.278 18.1137 163.47C18.6837 163.662 19.3257 163.758 20.0397 163.758ZM26.5467 182.471H13.5327V180.338H21.9387C22.2747 180.338 22.6377 180.356 23.0277 180.392L15.6387 176.459C15.2847 176.273 15.1077 175.988 15.1077 175.604V175.262C15.1077 174.878 15.2847 174.593 15.6387 174.407L23.0547 170.429C22.8567 170.447 22.6617 170.462 22.4697 170.474C22.2777 170.486 22.1007 170.492 21.9387 170.492H13.5327V168.359H26.5467V170.186C26.5467 170.294 26.5437 170.387 26.5377 170.465C26.5317 170.543 26.5167 170.612 26.4927 170.672C26.4687 170.738 26.4297 170.795 26.3757 170.843C26.3217 170.897 26.2497 170.948 26.1597 170.996L18.9327 174.893C18.7407 174.995 18.5427 175.088 18.3387 175.172C18.1347 175.262 17.9247 175.349 17.7087 175.433C17.9307 175.517 18.1437 175.604 18.3477 175.694C18.5577 175.784 18.7587 175.88 18.9507 175.982L26.1597 179.825C26.2497 179.873 26.3217 179.924 26.3757 179.978C26.4297 180.032 26.4687 180.089 26.4927 180.149C26.5167 180.215 26.5317 180.287 26.5377 180.365C26.5437 180.443 26.5467 180.536 26.5467 180.644V182.471ZM24.6207 187.805H21.0117L21.0117 192.359H19.1487L19.1487 187.805H15.4677V193.583H13.5327L13.5327 185.375H26.5467L26.5467 193.583H24.6207L24.6207 187.805Z" fill="black"/>
<path d="M20.5 201.033L20.5 1.99974" stroke="black" stroke-width="3" stroke-linecap="round"/>
<path d="M20.5327 207.859C23.2941 207.859 25.5327 205.62 25.5327 202.859C25.5327 200.097 23.2941 197.859 20.5327 197.859C17.7713 197.859 15.5327 200.097 15.5327 202.859C15.5327 205.62 17.7713 207.859 20.5327 207.859Z" stroke="black" stroke-width="3" stroke-linecap="round" stroke-linejoin="round"/>
<path d="M20.5327 231.192V207.859" stroke="black" stroke-width="3" stroke-linecap="round" stroke-linejoin="round"/>
<path d="M8.86609 214.526H3.86609C3.86609 218.946 5.62204 223.185 8.74764 226.311C11.8732 229.436 16.1125 231.192 20.5328 231.192C24.953 231.192 29.1923 229.436 32.3179 226.311C35.4435 223.185 37.1994 218.946 37.1994 214.526H32.1994" stroke="black" stroke-width="3" stroke-linecap="round" stroke-linejoin="round"/>
</svg>
